<svg xmlns="http://www.w3.org/2000/svg" id="Layer_1" data-name="Layer 1" viewBox="272.8 531.32 954.41 437.48"><defs><style>.cls-1{fill:#16264e;}.cls-2{fill:#00a08a;}</style></defs><path class="cls-1" d="M646.23,595.27C560.9,510,422.07,510,336.74,595.27c-70.58,70.58-82.69,177.75-36.5,261l0,0,.58,1c.29.52.55,1,.85,1.56l.06,0,3.74,6.32h0a12.71,12.71,0,0,0,1.92,2.5,13.06,13.06,0,0,0,19.46-17.37l.12,0c-45.13-74.13-35.73-172.37,28.3-236.4,75.11-75.11,197.32-75.11,272.43,0s75.11,197.32,0,272.43c-64,64-162.27,73.43-236.4,28.3h0a13.12,13.12,0,0,0-17.47,19.53,12.65,12.65,0,0,0,1,.81l-.08.11.84.51c.31.22.64.41,1,.6l6.13,3.77c83.58,47.87,192.23,36.2,263.54-35.1C731.55,819.43,731.55,680.6,646.23,595.27Z"/><circle class="cls-1" cx="346" cy="895.5" r="13.1"/><path class="cls-1" d="M592.58,651.53l-.05.1c-.21-.21-.48-.38-.71-.58a13.1,13.1,0,0,0-20.47,16.32,14,14,0,0,0,.86,1.44h0l.1.11a13.27,13.27,0,0,0,2.74,2.81l5.84,6.65A112.42,112.42,0,0,1,606.31,750c0,63.43-51.39,115-114.83,115S377,813.43,377,750a112.17,112.17,0,0,1,26.54-73l5-5.62c.16-.16,1.9-1.8,2.83-2.87,2.1-2.3,3.05-5.78,3.05-9.14a12.85,12.85,0,0,0-21-10,13.86,13.86,0,0,0-2.55,1.71l0-.07-.38.42a11,11,0,0,0-.81.86A140.67,140.67,0,0,0,350.25,750c0,77.87,63.36,141.23,141.23,141.23S632.72,827.89,632.72,750A140.76,140.76,0,0,0,592.58,651.53Z"/><path class="cls-1" d="M491.51,700.82a61.25,61.25,0,1,1,61.25-61.25A61.32,61.32,0,0,1,491.51,700.82Zm0-96.19a34.95,34.95,0,1,0,35,34.94A35,35,0,0,0,491.51,604.63Z"/><path class="cls-1" d="M491.66,844.19a61.25,61.25,0,1,1,61.25-61.25A61.32,61.32,0,0,1,491.66,844.19Zm0-96.2a34.95,34.95,0,1,0,34.95,35A35,35,0,0,0,491.66,748Z"/><path class="cls-1" d="M835.38,658.21H801.86a4.18,4.18,0,0,0-3.07,1.22,4.37,4.37,0,0,0-1.23,3.23v4.75a4.41,4.41,0,0,0,1.22,3.22,4.22,4.22,0,0,0,3.08,1.23h21.36v5.33c0,6-1.16,11.08-3.44,15a21.07,21.07,0,0,1-9.33,8.61,31.71,31.71,0,0,1-13.63,2.81c-7.55,0-13.74-2.09-18.39-6.23s-7.18-11.06-7.56-20.64c-.3-8.74-.3-17.6,0-26.33.38-9.5,2.9-16.37,7.48-20.43s10.77-6.15,18.32-6.15c5.19,0,9.47.79,12.74,2.36a22.5,22.5,0,0,1,7.85,5.91,24.17,24.17,0,0,1,4.24,7.33,6.21,6.21,0,0,0,1.5,2.41,4,4,0,0,0,2.74.82h8.75a4.27,4.27,0,0,0,3-1,3.27,3.27,0,0,0,1-2.84,22.82,22.82,0,0,0-2.7-9,33.73,33.73,0,0,0-7.61-9.68,40.88,40.88,0,0,0-13-7.66,52.06,52.06,0,0,0-18.56-3c-8.71,0-16.28,1.68-22.51,5a34.62,34.62,0,0,0-14.38,14c-3.27,5.92-5.12,13-5.52,21.17-.1,4.38-.15,9.11-.15,14s0,9.6.15,13.91a49.43,49.43,0,0,0,5.52,21.3A34.46,34.46,0,0,0,774.08,713c6.18,3.32,13.78,5,22.59,5s16.68-1.71,23.11-5.07a35.16,35.16,0,0,0,14.82-14.38,44.41,44.41,0,0,0,5.08-21.63V662.66a4.59,4.59,0,0,0-1.12-3.2A4.14,4.14,0,0,0,835.38,658.21Z"/><path class="cls-1" d="M933.32,652.74a30.55,30.55,0,0,0-12-12.21c-5.15-2.93-11.59-4.42-19.13-4.42s-14,1.49-19.12,4.42a30.61,30.61,0,0,0-12,12.21,41.26,41.26,0,0,0-4.63,17.87c-.1,1.6-.15,3.74-.15,6.36s.05,4.81.15,6.49a42.08,42.08,0,0,0,4.55,17.8,30,30,0,0,0,11.92,12.3c5.16,2.93,11.64,4.42,19.27,4.42s14.12-1.49,19.28-4.42a29.92,29.92,0,0,0,11.92-12.3A42.22,42.22,0,0,0,938,683.47c.09-1.73.15-3.91.15-6.5s-.06-4.73-.15-6.34A41.41,41.41,0,0,0,933.32,652.74Zm-31.12,52c-5.84,0-10.59-1.88-14.1-5.58s-5.43-9.29-5.62-16.58c-.1-1.45-.14-3.33-.14-5.57s0-4.13.14-5.62c.19-7.24,2.08-12.81,5.62-16.53s8.26-5.59,14.1-5.59,10.57,1.88,14,5.58,5.4,9.3,5.69,16.58c.1,1.49.15,3.37.15,5.58s-.05,4.08-.15,5.6c-.29,7.25-2.2,12.82-5.69,16.55S908.05,704.78,902.2,704.78Z"/><path class="cls-1" d="M1032.22,652.74a30.59,30.59,0,0,0-12-12.21c-5.16-2.93-11.6-4.42-19.13-4.42s-14,1.49-19.13,4.42a30.59,30.59,0,0,0-12,12.21,41.26,41.26,0,0,0-4.64,17.87c-.09,1.6-.14,3.74-.14,6.36s0,4.81.14,6.49a42.23,42.23,0,0,0,4.56,17.8,29.89,29.89,0,0,0,11.91,12.3c5.16,2.93,11.64,4.42,19.28,4.42s14.12-1.49,19.27-4.42a29.92,29.92,0,0,0,11.92-12.3,42.07,42.07,0,0,0,4.55-17.79c.1-1.73.15-3.91.15-6.5s0-4.73-.15-6.34A41.27,41.27,0,0,0,1032.22,652.74Zm-31.11,52c-5.85,0-10.6-1.88-14.11-5.58s-5.42-9.29-5.62-16.58c-.09-1.45-.14-3.33-.14-5.57s0-4.13.14-5.62c.2-7.24,2.08-12.81,5.62-16.53s8.26-5.59,14.11-5.59,10.56,1.88,14,5.58,5.4,9.3,5.69,16.58c.1,1.49.15,3.37.15,5.58s-.05,4.08-.15,5.6c-.29,7.25-2.2,12.82-5.69,16.55S1007,704.78,1001.11,704.78Z"/><path class="cls-1" d="M1129.3,609.42h-7.12a4.19,4.19,0,0,0-4.31,4.3v31.75a32.59,32.59,0,0,0-8.18-6.14c-4-2.13-9-3.22-15-3.22a32.85,32.85,0,0,0-14.48,3,27.45,27.45,0,0,0-10,8.2,36.53,36.53,0,0,0-5.78,11.71,57.51,57.51,0,0,0-2.18,13.54c-.1,1.6-.15,3.11-.15,4.51s.05,2.9.15,4.48a57.94,57.94,0,0,0,2.18,13.71,35.62,35.62,0,0,0,5.78,11.63,27.8,27.8,0,0,0,10,8.13,32.85,32.85,0,0,0,14.48,3c6,0,11.18-1.11,15.25-3.3a32.16,32.16,0,0,0,8.33-6.3v3.81a4.31,4.31,0,0,0,1.13,3,4.11,4.11,0,0,0,3.17,1.26h6.68a4.2,4.2,0,0,0,4.3-4.31V613.72a4.19,4.19,0,0,0-4.3-4.3ZM1118,676.53c0,2.16,0,4.06-.15,5.68a28.65,28.65,0,0,1-2.3,10.43,20.31,20.31,0,0,1-6.39,8.32c-2.79,2.14-6.6,3.22-11.33,3.22s-8.68-1.06-11.47-3.16a17.51,17.51,0,0,1-6.08-8.33,39.42,39.42,0,0,1-2.17-11.37c-.1-2.84-.1-5.71,0-8.53a39.43,39.43,0,0,1,2.17-11.39,17.51,17.51,0,0,1,6.08-8.33c2.79-2.1,6.65-3.16,11.47-3.16,4.53,0,8.27,1,11.12,3.09a20,20,0,0,1,6.54,8,25.67,25.67,0,0,1,2.36,9.92C1118,672.47,1118,674.37,1118,676.53Z"/><path class="cls-1" d="M1224.71,684a21.38,21.38,0,0,0-8.34-7.9c-3.83-2.22-9.11-4-15.67-5.29a106,106,0,0,1-13.52-3.82c-2.9-1.12-4.86-2.36-5.84-3.7a7.4,7.4,0,0,1-1.45-4.52,8.88,8.88,0,0,1,3.38-7.17c2.3-1.93,5.85-2.91,10.55-2.91a22.41,22.41,0,0,1,8.06,1.2,14.94,14.94,0,0,1,4.9,3,36.36,36.36,0,0,1,3.47,3.84,8.72,8.72,0,0,0,1.4,1.16,3.92,3.92,0,0,0,2.2.59h6.22a4.32,4.32,0,0,0,3-1.2,3.69,3.69,0,0,0,1.16-3.17,11.77,11.77,0,0,0-2.06-5.16,25.33,25.33,0,0,0-5.53-5.92,31.2,31.2,0,0,0-9.31-5,41.2,41.2,0,0,0-13.5-2c-6.44,0-11.89,1.13-16.2,3.36a25.22,25.22,0,0,0-9.91,8.7,20.4,20.4,0,0,0-3.4,11.08,21.37,21.37,0,0,0,2.32,10,19.68,19.68,0,0,0,7.76,7.62,52.53,52.53,0,0,0,14.35,5.22,122.24,122.24,0,0,1,13.91,3.68c3.26,1.13,5.53,2.39,6.75,3.75a7.72,7.72,0,0,1,1.77,5.34,8.4,8.4,0,0,1-4.45,7.76c-3.11,1.84-7.15,2.77-12,2.77a23.59,23.59,0,0,1-8.36-1.28,18.33,18.33,0,0,1-5.59-3.25,53.16,53.16,0,0,1-4.21-4.06,5.65,5.65,0,0,0-1.74-1.5,4.43,4.43,0,0,0-1.76-.29h-6.52a4.81,4.81,0,0,0-2.91,1.07,3.5,3.5,0,0,0-1.39,3.3,12.28,12.28,0,0,0,2.13,5.15,25.42,25.42,0,0,0,5.76,6.16,33.63,33.63,0,0,0,9.9,5.18,44.46,44.46,0,0,0,14.54,2.13c7,0,13-1.05,17.78-3.11a25.45,25.45,0,0,0,11.05-8.54,20.44,20.44,0,0,0,3.8-11.93A21.21,21.21,0,0,0,1224.71,684Z"/><path class="cls-1" d="M838.4,876.32H789.91l0-88.35a4.33,4.33,0,0,0-1.13-3.05,3.92,3.92,0,0,0-3-1.26h-7.86a4.11,4.11,0,0,0-3.17,1.26,4.33,4.33,0,0,0-1.13,3.05l.05,98.73a4.35,4.35,0,0,0,1.13,3.06,4.1,4.1,0,0,0,3.17,1.25H838.4a4.14,4.14,0,0,0,3.18-1.25,4.39,4.39,0,0,0,1.12-3.06v-5.93a4.61,4.61,0,0,0-1.12-3.2A4.16,4.16,0,0,0,838.4,876.32Z"/><path class="cls-1" d="M925.52,819.37a25.1,25.1,0,0,0-9.91-6.39,43.79,43.79,0,0,0-15.29-2.36,38.71,38.71,0,0,0-13.89,2.22,31.35,31.35,0,0,0-9.39,5.42,23.43,23.43,0,0,0-5.47,6.63,13.28,13.28,0,0,0-1.81,5.91,4.34,4.34,0,0,0,1,2.87,3.89,3.89,0,0,0,3.13,1.28h6.67a4,4,0,0,0,3.94-2.79,13.62,13.62,0,0,1,5.37-6.4c2.56-1.68,6-2.53,10.27-2.53,5.86,0,10.11,1.27,12.65,3.75s3.81,6,3.81,10.49V841l-21.34,3c-9,1.3-16.42,4-22,8.17a20.15,20.15,0,0,0-8.67,17,19.72,19.72,0,0,0,3.88,11.94,27,27,0,0,0,10.12,8.28,31.38,31.38,0,0,0,13.89,3.06,38,38,0,0,0,12.3-1.75,28.71,28.71,0,0,0,8.42-4.45,31.61,31.61,0,0,0,3.74-3.46v3.87a4.31,4.31,0,0,0,1.13,3,4.08,4.08,0,0,0,3.18,1.26h6.82a4.19,4.19,0,0,0,4.3-4.31v-48a33.35,33.35,0,0,0-1.6-10.21A24.57,24.57,0,0,0,925.52,819.37Zm-8.89,33.52V856c0,5.36-.94,9.86-2.79,13.37a17.65,17.65,0,0,1-7.55,7.71,23.15,23.15,0,0,1-10.72,2.49,22.55,22.55,0,0,1-7.49-1.28,13.91,13.91,0,0,1-5.86-3.83,9,9,0,0,1-2.22-6.3c0-3.27,1.62-5.91,4.93-8.08s8.66-3.87,15.52-4.83Z"/><path class="cls-1" d="M1036.7,847.09a50.9,50.9,0,0,0-2.11-13.59,37.52,37.52,0,0,0-5.85-11.69,27.51,27.51,0,0,0-10-8.2,32.76,32.76,0,0,0-14.56-3,31.6,31.6,0,0,0-14.88,3.22,32.86,32.86,0,0,0-8.25,6.14V788.23a4.34,4.34,0,0,0-1.13-3.05,4.1,4.1,0,0,0-3.17-1.25h-7.12a4.19,4.19,0,0,0-4.3,4.3V886.7a4.19,4.19,0,0,0,4.3,4.31h6.82a4.19,4.19,0,0,0,4.3-4.31V883a30.53,30.53,0,0,0,8.18,6.24c4.07,2.19,9.2,3.3,15.25,3.3a32.76,32.76,0,0,0,14.56-3,27.72,27.72,0,0,0,10-8.12,36.38,36.38,0,0,0,5.86-11.63,51.22,51.22,0,0,0,2.11-13.7q.15-2.4.15-4.5C1036.85,850.16,1036.8,848.66,1036.7,847.09Zm-15.87.2c.1,2.83.1,5.71,0,8.53a39.29,39.29,0,0,1-2.17,11.38,17.74,17.74,0,0,1-6,8.34c-2.74,2.09-6.62,3.15-11.54,3.15-4.63,0-8.41-1.08-11.26-3.23a19.42,19.42,0,0,1-6.38-8.3,32,32,0,0,1-2.38-10.47c-.1-1.55-.15-3.45-.15-5.65s0-4.1.15-5.69a25.36,25.36,0,0,1,2.37-9.88,19.55,19.55,0,0,1,6.6-8,18.66,18.66,0,0,1,11.05-3.1c4.92,0,8.8,1.06,11.54,3.15a17.77,17.77,0,0,1,6,8.35A39.16,39.16,0,0,1,1020.83,847.29Z"/><path class="cls-1" d="M646.23,595.27C560.9,510,422.07,510,336.74,595.27c-70.58,70.58-82.69,177.75-36.5,261l0,0,.58,1c.29.52.55,1,.85,1.56l.06,0,3.74,6.32h0a12.71,12.71,0,0,0,1.92,2.5,13.06,13.06,0,0,0,19.46-17.37l.12,0c-45.13-74.13-35.73-172.37,28.3-236.4,75.11-75.11,197.32-75.11,272.43,0s75.11,197.32,0,272.43c-64,64-162.27,73.43-236.4,28.3h0a13.12,13.12,0,0,0-17.47,19.53,12.65,12.65,0,0,0,1,.81l-.08.11.84.51c.31.22.64.41,1,.6l6.13,3.77c83.58,47.87,192.23,36.2,263.54-35.1C731.55,819.43,731.55,680.6,646.23,595.27Z"/><circle class="cls-2" cx="346" cy="895.5" r="13.1"/><path class="cls-1" d="M592.58,651.53l-.05.1c-.21-.21-.48-.38-.71-.58a13.1,13.1,0,0,0-20.47,16.32,14,14,0,0,0,.86,1.44h0l.1.11a13.27,13.27,0,0,0,2.74,2.81l5.84,6.65A112.42,112.42,0,0,1,606.31,750c0,63.43-51.39,115-114.83,115S377,813.43,377,750a112.17,112.17,0,0,1,26.54-73l5-5.62c.16-.16,1.9-1.8,2.83-2.87,2.1-2.3,3.05-5.78,3.05-9.14a12.85,12.85,0,0,0-21-10,13.86,13.86,0,0,0-2.55,1.71l0-.07-.38.42a11,11,0,0,0-.81.86A140.67,140.67,0,0,0,350.25,750c0,77.87,63.36,141.23,141.23,141.23S632.72,827.89,632.72,750A140.76,140.76,0,0,0,592.58,651.53Z"/><path class="cls-1" d="M491.51,700.82a61.25,61.25,0,1,1,61.25-61.25A61.32,61.32,0,0,1,491.51,700.82Zm0-96.19a34.95,34.95,0,1,0,35,34.94A35,35,0,0,0,491.51,604.63Z"/><path class="cls-1" d="M491.66,844.19a61.25,61.25,0,1,1,61.25-61.25A61.32,61.32,0,0,1,491.66,844.19Zm0-96.2a34.95,34.95,0,1,0,34.95,35A35,35,0,0,0,491.66,748Z"/><path class="cls-1" d="M835.38,658.21H801.86a4.18,4.18,0,0,0-3.07,1.22,4.37,4.37,0,0,0-1.23,3.23v4.75a4.41,4.41,0,0,0,1.22,3.22,4.22,4.22,0,0,0,3.08,1.23h21.36v5.33c0,6-1.16,11.08-3.44,15a21.07,21.07,0,0,1-9.33,8.61,31.71,31.71,0,0,1-13.63,2.81c-7.55,0-13.74-2.09-18.39-6.23s-7.18-11.06-7.56-20.64c-.3-8.74-.3-17.6,0-26.33.38-9.5,2.9-16.37,7.48-20.43s10.77-6.15,18.32-6.15c5.19,0,9.47.79,12.74,2.36a22.5,22.5,0,0,1,7.85,5.91,24.17,24.17,0,0,1,4.24,7.33,6.21,6.21,0,0,0,1.5,2.41,4,4,0,0,0,2.74.82h8.75a4.27,4.27,0,0,0,3-1,3.27,3.27,0,0,0,1-2.84,22.82,22.82,0,0,0-2.7-9,33.73,33.73,0,0,0-7.61-9.68,40.88,40.88,0,0,0-13-7.66,52.06,52.06,0,0,0-18.56-3c-8.71,0-16.28,1.68-22.51,5a34.62,34.62,0,0,0-14.38,14c-3.27,5.92-5.12,13-5.52,21.17-.1,4.38-.15,9.11-.15,14s0,9.6.15,13.91a49.43,49.43,0,0,0,5.52,21.3A34.46,34.46,0,0,0,774.08,713c6.18,3.32,13.78,5,22.59,5s16.68-1.71,23.11-5.07a35.16,35.16,0,0,0,14.82-14.38,44.41,44.41,0,0,0,5.08-21.63V662.66a4.59,4.59,0,0,0-1.12-3.2A4.14,4.14,0,0,0,835.38,658.21Z"/><path class="cls-1" d="M933.32,652.74a30.55,30.55,0,0,0-12-12.21c-5.15-2.93-11.59-4.42-19.13-4.42s-14,1.49-19.12,4.42a30.61,30.61,0,0,0-12,12.21,41.26,41.26,0,0,0-4.63,17.87c-.1,1.6-.15,3.74-.15,6.36s.05,4.81.15,6.49a42.08,42.08,0,0,0,4.55,17.8,30,30,0,0,0,11.92,12.3c5.16,2.93,11.64,4.42,19.27,4.42s14.12-1.49,19.28-4.42a29.92,29.92,0,0,0,11.92-12.3A42.22,42.22,0,0,0,938,683.47c.09-1.73.15-3.91.15-6.5s-.06-4.73-.15-6.34A41.41,41.41,0,0,0,933.32,652.74Zm-31.12,52c-5.84,0-10.59-1.88-14.1-5.58s-5.43-9.29-5.62-16.58c-.1-1.45-.14-3.33-.14-5.57s0-4.13.14-5.62c.19-7.24,2.08-12.81,5.62-16.53s8.26-5.59,14.1-5.59,10.57,1.88,14,5.58,5.4,9.3,5.69,16.58c.1,1.49.15,3.37.15,5.58s-.05,4.08-.15,5.6c-.29,7.25-2.2,12.82-5.69,16.55S908.05,704.78,902.2,704.78Z"/><path class="cls-1" d="M1032.22,652.74a30.59,30.59,0,0,0-12-12.21c-5.16-2.93-11.6-4.42-19.13-4.42s-14,1.49-19.13,4.42a30.59,30.59,0,0,0-12,12.21,41.26,41.26,0,0,0-4.64,17.87c-.09,1.6-.14,3.74-.14,6.36s0,4.81.14,6.49a42.23,42.23,0,0,0,4.56,17.8,29.89,29.89,0,0,0,11.91,12.3c5.16,2.93,11.64,4.42,19.28,4.42s14.12-1.49,19.27-4.42a29.92,29.92,0,0,0,11.92-12.3,42.07,42.07,0,0,0,4.55-17.79c.1-1.73.15-3.91.15-6.5s0-4.73-.15-6.34A41.27,41.27,0,0,0,1032.22,652.74Zm-31.11,52c-5.85,0-10.6-1.88-14.11-5.58s-5.42-9.29-5.62-16.58c-.09-1.45-.14-3.33-.14-5.57s0-4.13.14-5.62c.2-7.24,2.08-12.81,5.62-16.53s8.26-5.59,14.11-5.59,10.56,1.88,14,5.58,5.4,9.3,5.69,16.58c.1,1.49.15,3.37.15,5.58s-.05,4.08-.15,5.6c-.29,7.25-2.2,12.82-5.69,16.55S1007,704.78,1001.11,704.78Z"/><path class="cls-1" d="M1129.3,609.42h-7.12a4.19,4.19,0,0,0-4.31,4.3v31.75a32.59,32.59,0,0,0-8.18-6.14c-4-2.13-9-3.22-15-3.22a32.85,32.85,0,0,0-14.48,3,27.45,27.45,0,0,0-10,8.2,36.53,36.53,0,0,0-5.78,11.71,57.51,57.51,0,0,0-2.18,13.54c-.1,1.6-.15,3.11-.15,4.51s.05,2.9.15,4.48a57.94,57.94,0,0,0,2.18,13.71,35.62,35.62,0,0,0,5.78,11.63,27.8,27.8,0,0,0,10,8.13,32.85,32.85,0,0,0,14.48,3c6,0,11.18-1.11,15.25-3.3a32.16,32.16,0,0,0,8.33-6.3v3.81a4.31,4.31,0,0,0,1.13,3,4.11,4.11,0,0,0,3.17,1.26h6.68a4.2,4.2,0,0,0,4.3-4.31V613.72a4.19,4.19,0,0,0-4.3-4.3ZM1118,676.53c0,2.16,0,4.06-.15,5.68a28.65,28.65,0,0,1-2.3,10.43,20.31,20.31,0,0,1-6.39,8.32c-2.79,2.14-6.6,3.22-11.33,3.22s-8.68-1.06-11.47-3.16a17.51,17.51,0,0,1-6.08-8.33,39.42,39.42,0,0,1-2.17-11.37c-.1-2.84-.1-5.71,0-8.53a39.43,39.43,0,0,1,2.17-11.39,17.51,17.51,0,0,1,6.08-8.33c2.79-2.1,6.65-3.16,11.47-3.16,4.53,0,8.27,1,11.12,3.09a20,20,0,0,1,6.54,8,25.67,25.67,0,0,1,2.36,9.92C1118,672.47,1118,674.37,1118,676.53Z"/><path class="cls-1" d="M1224.71,684a21.38,21.38,0,0,0-8.34-7.9c-3.83-2.22-9.11-4-15.67-5.29a106,106,0,0,1-13.52-3.82c-2.9-1.12-4.86-2.36-5.84-3.7a7.4,7.4,0,0,1-1.45-4.52,8.88,8.88,0,0,1,3.38-7.17c2.3-1.93,5.85-2.91,10.55-2.91a22.41,22.41,0,0,1,8.06,1.2,14.94,14.94,0,0,1,4.9,3,36.36,36.36,0,0,1,3.47,3.84,8.72,8.72,0,0,0,1.4,1.16,3.92,3.92,0,0,0,2.2.59h6.22a4.32,4.32,0,0,0,3-1.2,3.69,3.69,0,0,0,1.16-3.17,11.77,11.77,0,0,0-2.06-5.16,25.33,25.33,0,0,0-5.53-5.92,31.2,31.2,0,0,0-9.31-5,41.2,41.2,0,0,0-13.5-2c-6.44,0-11.89,1.13-16.2,3.36a25.22,25.22,0,0,0-9.91,8.7,20.4,20.4,0,0,0-3.4,11.08,21.37,21.37,0,0,0,2.32,10,19.68,19.68,0,0,0,7.76,7.62,52.53,52.53,0,0,0,14.35,5.22,122.24,122.24,0,0,1,13.91,3.68c3.26,1.13,5.53,2.39,6.75,3.75a7.72,7.72,0,0,1,1.77,5.34,8.4,8.4,0,0,1-4.45,7.76c-3.11,1.84-7.15,2.77-12,2.77a23.59,23.59,0,0,1-8.36-1.28,18.33,18.33,0,0,1-5.59-3.25,53.16,53.16,0,0,1-4.21-4.06,5.65,5.65,0,0,0-1.74-1.5,4.43,4.43,0,0,0-1.76-.29h-6.52a4.81,4.81,0,0,0-2.91,1.07,3.5,3.5,0,0,0-1.39,3.3,12.28,12.28,0,0,0,2.13,5.15,25.42,25.42,0,0,0,5.76,6.16,33.63,33.63,0,0,0,9.9,5.18,44.46,44.46,0,0,0,14.54,2.13c7,0,13-1.05,17.78-3.11a25.45,25.45,0,0,0,11.05-8.54,20.44,20.44,0,0,0,3.8-11.93A21.21,21.21,0,0,0,1224.71,684Z"/><path class="cls-1" d="M838.4,876.32H789.91l0-88.35a4.33,4.33,0,0,0-1.13-3.05,3.92,3.92,0,0,0-3-1.26h-7.86a4.11,4.11,0,0,0-3.17,1.26,4.33,4.33,0,0,0-1.13,3.05l.05,98.73a4.35,4.35,0,0,0,1.13,3.06,4.1,4.1,0,0,0,3.17,1.25H838.4a4.14,4.14,0,0,0,3.18-1.25,4.39,4.39,0,0,0,1.12-3.06v-5.93a4.61,4.61,0,0,0-1.12-3.2A4.16,4.16,0,0,0,838.4,876.32Z"/><path class="cls-1" d="M925.52,819.37a25.1,25.1,0,0,0-9.91-6.39,43.79,43.79,0,0,0-15.29-2.36,38.71,38.71,0,0,0-13.89,2.22,31.35,31.35,0,0,0-9.39,5.42,23.43,23.43,0,0,0-5.47,6.63,13.28,13.28,0,0,0-1.81,5.91,4.34,4.34,0,0,0,1,2.87,3.89,3.89,0,0,0,3.13,1.28h6.67a4,4,0,0,0,3.94-2.79,13.62,13.62,0,0,1,5.37-6.4c2.56-1.68,6-2.53,10.27-2.53,5.86,0,10.11,1.27,12.65,3.75s3.81,6,3.81,10.49V841l-21.34,3c-9,1.3-16.42,4-22,8.17a20.15,20.15,0,0,0-8.67,17,19.72,19.72,0,0,0,3.88,11.94,27,27,0,0,0,10.12,8.28,31.38,31.38,0,0,0,13.89,3.06,38,38,0,0,0,12.3-1.75,28.71,28.71,0,0,0,8.42-4.45,31.61,31.61,0,0,0,3.74-3.46v3.87a4.31,4.31,0,0,0,1.13,3,4.08,4.08,0,0,0,3.18,1.26h6.82a4.19,4.19,0,0,0,4.3-4.31v-48a33.35,33.35,0,0,0-1.6-10.21A24.57,24.57,0,0,0,925.52,819.37Zm-8.89,33.52V856c0,5.36-.94,9.86-2.79,13.37a17.65,17.65,0,0,1-7.55,7.71,23.15,23.15,0,0,1-10.72,2.49,22.55,22.55,0,0,1-7.49-1.28,13.91,13.91,0,0,1-5.86-3.83,9,9,0,0,1-2.22-6.3c0-3.27,1.62-5.91,4.93-8.08s8.66-3.87,15.52-4.83Z"/><path class="cls-1" d="M1036.7,847.09a50.9,50.9,0,0,0-2.11-13.59,37.52,37.52,0,0,0-5.85-11.69,27.51,27.51,0,0,0-10-8.2,32.76,32.76,0,0,0-14.56-3,31.6,31.6,0,0,0-14.88,3.22,32.86,32.86,0,0,0-8.25,6.14V788.23a4.34,4.34,0,0,0-1.13-3.05,4.1,4.1,0,0,0-3.17-1.25h-7.12a4.19,4.19,0,0,0-4.3,4.3V886.7a4.19,4.19,0,0,0,4.3,4.31h6.82a4.19,4.19,0,0,0,4.3-4.31V883a30.53,30.53,0,0,0,8.18,6.24c4.07,2.19,9.2,3.3,15.25,3.3a32.76,32.76,0,0,0,14.56-3,27.72,27.72,0,0,0,10-8.12,36.38,36.38,0,0,0,5.86-11.63,51.22,51.22,0,0,0,2.11-13.7q.15-2.4.15-4.5C1036.85,850.16,1036.8,848.66,1036.7,847.09Zm-15.87.2c.1,2.83.1,5.71,0,8.53a39.29,39.29,0,0,1-2.17,11.38,17.74,17.74,0,0,1-6,8.34c-2.74,2.09-6.62,3.15-11.54,3.15-4.63,0-8.41-1.08-11.26-3.23a19.42,19.42,0,0,1-6.38-8.3,32,32,0,0,1-2.38-10.47c-.1-1.55-.15-3.45-.15-5.65s0-4.1.15-5.69a25.36,25.36,0,0,1,2.37-9.88,19.55,19.55,0,0,1,6.6-8,18.66,18.66,0,0,1,11.05-3.1c4.92,0,8.8,1.06,11.54,3.15a17.77,17.77,0,0,1,6,8.35A39.16,39.16,0,0,1,1020.83,847.29Z"/></svg>